<svg xmlns="http://www.w3.org/2000/svg" width="1943.01" height="561.989" preserveAspectRatio="none" viewBox="0 -842.32 1943.005 561.989"><path fill="#3d9fe2" d="M1433.56-687.52c5.59-.42 31.8.81 31.97 8.87 2.01 93.51.35 187.45 1.05 281.08.05 7.96-3.63 20.73-11.97 23.87-19.81 6.65-61.3 8.14-73.02-13.99-39.97-75.41-84.73-150.7-118.77-229.01-1.15 20.72 1.88 42.02 1.95 62.83.16 55.49.34 110.99.21 166.49-.02 6.28.16 10.47-4.58 14.96-12.02 4.59-42.08 6.19-51.78-3.27-3.28-15.35-2.86-288.46-.03-296.34 1.87-5.23 6.79-9.37 11.73-11.64 13.39-6.17 50.07-5.05 63.74.09 5.99 2.25 10.61 5.41 14.42 10.58 2.81 3.81 4.71 8.2 7.09 12.27 9.94 17.05 18.31 34.75 27.51 52.21 26.23 49.83 53.39 99.13 76.51 150.51.83-20.84-1.1-41.8-1.06-62.72.07-50.67-.73-101.54.14-152.2.23-13.4 14.62-13.78 24.89-14.59"/><path d="M1584.27-380.43c6.358.28 15.958-.241 26.312-.272 12.219-.036 25.488.61 35.722 4.06 7.211 2.431 12.916 6.253 15.685 12.208 2.217 4.77 2.552 10.907.271 18.794-2.61 9-10.58 14.27-18.73 18.1-15.151 4.747-33.498 5.75-48.667 2.935-13.266-2.461-24.101-7.842-28.24-16.192-2.71-5.468-2.55-12.209 1.68-20.236Zm-6.489-224.194a92 92 0 0 0-14.293 5.943c-9.452 4.912-17.699 11.367-24.354 19.102a74.5 74.5 0 0 0-16.105 31.566c-2.229 9.391-2.779 19.587-1.359 30.393 2.12 16 8.18 27.03 18.92 38.8-27.71 24.68-38.14 62.54-1.58 84.69-15.47 12.18-29.47 25.85-31.77 46.27-5.23 46.77 40.44 62.7 78.36 66.29 37.85 3.59 81.43.44 112.61-23.71 6.51-5.23 13.95-13.13 17.74-20.61 5.26-10.59 6.838-17.576 6.535-26.925-.264-8.154-3.905-15.535-7.005-22.875-17.74-42.08-68.02-42.27-106.56-41.48-11.29.23-30.68.11-37.22-10.2-5.36-8.68-1.21-19.22 5.2-25.94 25.65 11.1 72.542-2.682 88.2-14.55 13.574-11.952 23.698-28.134 27.141-45.74 2.376-12.149 1.57-24.976-3.481-37.56-1.13-2.72-2.37-5.4-3.71-8.02 8.51.01 19.84 2.09 26.44-2.98 8.09-6.22 6.44-36.54.05-40.64-7.15-4.58-51.81-2.37-61.38-2.92-15.68-.9-36.205-5.16-54.14-2.93-12.216 1.519-18.239 4.026-18.239 4.026m27.379 36.724c9.644-.882 20.405.844 28.322 6.472 7.919 5.628 13.688 14.282 15.428 24.618 1.74 10.341-.883 20.406-6.527 28.316s-14.309 13.664-24.653 15.384c-11.63 1.94-22.91-1.645-31.158-8.842a37.78 37.78 0 0 1-12.452-22.278c-1.796-10.64 1.036-20.996 7.032-29.008a38 38 0 0 1 10.589-9.649s3.424-4.099 13.419-5.013" style="fill:#3d9fe2"/><path fill="#3d9fe2" d="m1843.4-677.34.24.2c26.49 45.42 71.96 114.53 90.54 160.75 28.35 70.48-14.3 143.66-89.37 146.94-18.33-.47-32.94-3.5-49.18-12.74a103 103 0 0 1-48.18-62.13 106.65 106.65 0 0 1-1.47-48.65c4.906-24.074 20.555-55.483 38.678-87.1Zm22.18 67.88c17.16 31.72 39.11 82.82 45.2 117.86 6.25 36.02-.37 63.95-21.51 93.56 77.4-56.91 12.85-152.45-22.33-213.64Z"/><path d="M534.845-567.58c7.481-.098 16.08 1.388 22.052 4.179 5.957 2.784 10.616 6.859 14.193 11.926 3.546 5.023 6.028 11.02 7.66 17.701 1.631 6.678 2.412 14.04 2.553 21.794l-23.85.016-21.045.014-26.968-.011-20.975-.009c1.079-8.341 2.482-16.027 4.628-22.86 2.068-6.58 4.825-12.369 8.648-17.188 4.107-5.177 9.443-9.235 16.474-11.956 0 0 10.958-3.532 16.63-3.606m-40.133-34.602c-15.349 5.688-27.837 14.383-37.725 25.354-6.057 6.72-11.137 14.294-15.302 22.554-4.52 8.966-7.961 18.74-10.399 29.107-3.853 16.384-5.199 34.25-4.34 52.747 3.631 78.12 56.564 112.12 130.78 106.33 18.912-1.64 51.689-5.04 66.991-17.55 8.441-6.9 9.437-33.724-1.214-43.64-.026-.024-.314.04-.314.04-8.594 1.05-24.381 9.18-33.495 11.45-21.754 5.42-61.358 8.28-80.237-5.24-11.22-8.03-19.833-27.99-21.453-41.47-.262-2.18-.173-3.61.685-5.65.689-.663 3.001-1.338 6.61-1.391 22.408-.327 84.652.887 127.533-.069 4.918-.11 10.587-5.781 12.747-7.771.661-.62 1.284-1.596 1.525-2.189 10.113-24.884 1.386-59.13-8.603-80.12-8.787-18.465-21.964-30.934-37.692-38.789-17.355-8.668-37.817-11.719-58.918-11.011 0 0-14.063.799-20.934 2.225-5.556 1.153-16.245 5.083-16.245 5.083" style="fill:#293f76"/><path fill="#293f76" d="M777.133-609.48c46.122-.063 101.871 19.78 100.04 89.73-.441 45.8.356 91.62-.116 137.4-.161 15.54-20.688 13.5-31.698 13.24-21.805-.51-18.439-8.77-18.117-26.25-34.757 39.98-109.564 42.37-139.317-5.04-16.004-24.61-11.198-68.17 13.132-86.44 33.701-25.31 76.563-23.98 116.287-24.01-.004-32.8-1.861-54.67-42.329-53.79-15.948.35-27.926 3.14-42.9 8.88-8.475 3.24-23.095 12.13-31.57 12.85-12.015-3.95-12.012-35.24-4.37-41.85 0 0 52.742-24.681 80.958-24.72m-26.045 148.333c-7.052 5.684-13.123 15.228-13.202 23.75-.076 8.227 3.652 16.273 10.539 21.984 6.042 5.01 16.22 8.265 24.983 8.183 8.917-.084 18.563-4.61 25.261-8.803 6.096-3.816 11.573-9.09 18.633-16.957-.01-6.365-.072-12.875-.101-19.38-.028-6.515-.023-13.025.101-19.38-9.68-.04-21.296-1.38-31.767.2-11.86 1.79-25.108 2.876-34.447 10.403M208.667-814.62c5.191 1.81 14.135 8.45 14.135 8.45s-42.115 65.9-60.673 98.97c-2.422 4.31-10.647 20.348-10.647 20.348s9.008-3.409 19.829-4.433c9.432-.893 20.423.54 25.699 1.015 9.98.94 19.848 2.83 29.473 5.63 13.34 3.95 34.468 11.68 41.359 24.63 5.793 12.31 3.554 29.72 1.054 42.67-.927 4.32-6.144 7.64-10.413 5.43-12.882-6.81-23.871-15.62-37.794-20.59-42.545-15.18-89.042 1.6-103.573 46.7-12.167 39.03-13.424 89.15 3.749 126.71 14.845 32.46 48.325 43.23 81.379 39.39 17.274-2.01 26.669-5.7 41.713-13.29 6.092-4.15 15.248-11.2 23.028-8.63 8.407 6.31 6.468 39.11-.041 47.53-11.161 14.43-36.037 22.32-53.576 25.35-38.558 6.65-82.814 3.1-115.671-19.87-49.148-32.79-63.77-103.4-54.685-158.49.895-5.43 22.908-39.01 27.516-46.35l47.078-75.47 57.358-92.21c10.731-17.33 33.703-53.49 33.703-53.49m856.053 205.08c51.95-1.54 77.45 32.37 80.51 80.88 1.16 23.86.7 47.85.76 71.76-.13 25.66.31 51.22-.3 76.89-.31 13.88-34.39 10.78-43.78 10.31-8.38-.42-17.05-3.39-17.09-13.4-.16-40.91.35-81.9.19-122.83-.09-23.21-7.06-52.79-36.05-51.03-19.25.96-27.89 9.89-40.36 23.11l-8.09 8.94-.08 99.52c.02 13.37 1.17 27.01.5 40.27-.69 14.09-10.945 15.72-22.385 15.64-11.567-.07-27.307 2.55-36.662-5.96-1.907-1.74-1.789-13.94-2.003-16.94.141-67.92-.469-135.93.236-203.82.15-14.39 49.009-14.31 50.739-.46.62 4.95-.09 20.3-.18 25.87 22.125-21.21 41.465-37.83 74.045-38.75M339.254-709.59c8.878-1.36 28.64-.2 34.977 7.71 1.523 1.9 2.166 12.77 2.18 15.88.269 59.49.113 118.98.078 178.46l.079 78.41c.016 14.8.269 29.92-.372 44.68-.355 3.27-.058 7.57-2.793 9.91-5.238 4.48-14.191 4.54-20.817 5.13-11.796 1.76-30.778 1.49-37.639-9.73l-.019-213.16-.038-68.49c-.001-11.47-.324-23.35.225-34.77.566-11.8 15.572-13.15 24.139-14.03m-172.513-127.9c5.914-.12 26.135 18.15 26.135 18.15s-18.453 31-26.71 44.35l-47.419 76.53-59.168 95.81c-5.305 8.56-27.802 46.91-33.969 51.27-6.229-1.03-23.849-11.73-25.61-18.29 1.838-6.59 23.763-39.74 29.108-47.98 46.853-72.23 137.633-219.84 137.633-219.84"/><path fill="#57caf8" d="M277.113-842.32c2.757 7.51 4.179 13.68 8.497 20.54 6.881 4.69 11.945 6.51 19.604 9.65-20.875 8.12-21.211 8.53-28.238 29.83-7.305-21.66-8.005-23.04-29.762-29.98 22.006-7.33 22.017-8.34 29.899-30.04m-41.019 83.93c1.367 1.57 3.189 8.06 4.639 10.99 4.72 9.52 10.542 10.19 20.014 13.18-7.002 2.51-10.051 3.7-16.727 7.33-4.336 5.93-5.412 10.3-7.468 17.16-1.387-1.44-3.599-8.14-4.847-10.68-4.638-9.49-9.613-10.28-18.92-13.35 16.683-7.31 17.165-7.21 23.309-24.63"/></svg>